<?xml version="1.0" encoding="utf-8"?>
<!-- Uploaded to: SVG Repo, www.svgrepo.com, Generator: SVG Repo Mixer Tools -->
<svg width="800px" height="800px" viewBox="0 -96 1226 1226" fill="none" xmlns="http://www.w3.org/2000/svg">
<g filter="url(#filter0_f_3_8)">
<path d="M895.676 744.343C939.847 732.216 1020.57 698.066 1049.93 672.02C1083.71 644.834 1015.91 611.739 1007.89 606.808C999.871 601.876 604.922 393.283 535.937 360.801C466.951 328.319 244.392 387.503 190.145 415.853C145.928 438.962 176.306 456.871 182 461.744C187.694 466.616 516.169 660.84 634.493 720.577C724.1 765.816 808.973 768.146 895.676 744.343Z" fill="#000000" fill-opacity="0.2"/>
</g>
<path fill-rule="evenodd" clip-rule="evenodd" d="M584.501 528.2L629.271 508.795L629.282 508.82C629.568 508.69 629.858 508.563 630.15 508.441C656.808 497.277 693.729 525.039 712.616 570.451C731.502 615.863 725.203 661.727 698.545 672.891C698.18 673.044 697.814 673.189 697.446 673.327L654.266 692.071L631.901 639.538C625.884 631.129 620.489 621.486 616.079 610.881C612.011 601.101 609.112 591.3 607.332 581.83L584.501 528.2Z" fill="#000000"/>
<ellipse rx="52.3547" ry="88.9425" transform="matrix(-0.921953 0.38611 0.384195 0.923749 619.963 609.967)" fill="#000000"/>
<g filter="url(#filter1_i_3_8)">
<ellipse rx="39.2679" ry="66.71" transform="matrix(-0.921953 0.38611 0.384195 0.923749 618.452 609.976)" fill="url(#paint0_linear_3_8)"/>
</g>
<g filter="url(#filter2_di_3_8)">
<path fill-rule="evenodd" clip-rule="evenodd" d="M621.245 562.498C626.819 565.983 632.274 571.083 637.154 577.455L625.202 597.056C623.724 595.231 622.125 593.702 620.483 592.528L621.245 562.498ZM619.536 629.877C621.974 630.91 624.397 631.099 626.552 630.255L642.544 659.752C641.66 660.302 640.732 660.783 639.761 661.19C633.38 663.862 626.057 662.959 618.791 659.231L619.536 629.877ZM616.528 657.978L617.272 628.679C615.337 627.451 613.441 625.722 611.711 623.589L599.998 642.8C605.068 649.354 610.747 654.541 616.528 657.978ZM618.224 591.152L618.984 561.176C611.44 557.074 603.793 555.991 597.163 558.767C595.311 559.543 593.617 560.586 592.085 561.868L608.225 591.637C608.817 591.144 609.471 590.741 610.185 590.442C612.632 589.417 615.437 589.748 618.224 591.152ZM588.376 622.578C591.192 629.351 594.653 635.492 598.517 640.821L610.233 621.606C608.926 619.701 607.751 617.55 606.776 615.205C606.657 614.92 606.543 614.634 606.432 614.349L586.99 619.051C587.425 620.226 587.887 621.403 588.376 622.578ZM626.68 599.04L638.628 579.444C642.403 584.701 645.785 590.737 648.548 597.379C649.108 598.727 649.633 600.075 650.123 601.422L630.432 606.183C630.333 605.931 630.231 605.678 630.126 605.426C629.153 603.087 627.983 600.942 626.68 599.04ZM586.215 616.875C582.979 607.428 581.48 598.113 581.604 589.753L604.156 603.592C604.234 606.289 604.73 609.205 605.667 612.171L586.215 616.875ZM631.203 608.359C632.328 611.883 632.83 615.34 632.749 618.444L655.256 632.256C655.672 623.532 654.261 613.65 650.885 603.6L631.203 608.359ZM655.076 634.839L632.537 621.009C632.035 624.528 630.679 627.401 628.539 629.106L644.432 658.421C650.497 653.602 654.127 645.149 655.076 634.839ZM581.698 587.117L604.219 600.937C604.456 597.963 605.261 595.372 606.593 593.442L590.353 563.488C585.22 568.838 582.268 577.207 581.698 587.117Z" fill="#4C4C4C"/>
</g>
<path fill-rule="evenodd" clip-rule="evenodd" d="M584.551 527.266L629.321 507.861L629.326 507.872C629.602 507.747 629.88 507.626 630.161 507.509C656.819 496.344 693.74 524.107 712.627 569.519C731.513 614.93 725.213 660.794 698.555 671.959C698.286 672.072 698.016 672.18 697.745 672.285L654.317 691.137L632.012 638.745C625.954 630.303 620.525 620.613 616.09 609.949C611.998 600.111 609.089 590.252 607.312 580.729L584.551 527.266Z" fill="#000000"/>
<path d="M571.181 630.169C590.053 675.545 626.963 703.279 653.621 692.115C680.279 680.951 686.591 635.116 667.718 589.74C648.846 544.364 610.866 514.186 584.208 525.35C557.55 536.514 552.309 584.793 571.181 630.169Z" fill="#2D2C2C"/>
<g filter="url(#filter3_i_3_8)">
<ellipse rx="36.802" ry="64.334" transform="matrix(-0.918177 0.396377 0.370986 0.928609 618.923 609.983)" fill="url(#paint1_linear_3_8)"/>
</g>
<g filter="url(#filter4_di_3_8)">
<path fill-rule="evenodd" clip-rule="evenodd" d="M595.178 623.785C604.437 644.557 620.459 657.63 633.263 655.185L623.94 632.324C618.501 632.036 612.329 626.799 608.204 618.789L595.178 623.785ZM592.63 617.376C585.258 596.367 587.468 575.845 597.653 567.857L606.972 590.709C603.415 595.136 602.786 603.603 605.577 612.41L592.63 617.376ZM630.448 602.871C626.181 593.479 619.104 587.357 613.103 587.552L603.847 564.852C617.125 561.691 634.131 575.697 643.412 597.899L630.448 602.871ZM632.765 609.369L645.811 604.366C652.548 625.115 649.95 645.039 639.574 652.47L630.313 629.758C634.037 625.815 635.006 617.88 632.765 609.369Z" fill="#A9A8A8"/>
</g>
<path fill-rule="evenodd" clip-rule="evenodd" d="M256.26 352.478L295.508 343.381L295.513 343.406C295.763 343.344 296.013 343.285 296.265 343.23C319.576 338.131 345.444 366.182 354.043 405.884C362.641 445.587 350.713 481.906 327.401 487.005C327.061 487.08 326.72 487.147 326.379 487.207L288.596 495.986L278.241 450.03C274.592 442.291 271.635 433.64 269.623 424.351C267.768 415.783 266.868 407.373 266.833 399.401L256.26 352.478Z" fill="#000000"/>
<ellipse rx="43.2393" ry="73.4429" transform="matrix(-0.976187 0.213537 0.211819 0.978055 272.877 424.183)" fill="#000000"/>
<g filter="url(#filter5_i_3_8)">
<ellipse rx="32.4311" ry="55.0852" transform="matrix(-0.976187 0.213537 0.211819 0.978055 271.668 423.963)" fill="url(#paint2_linear_3_8)"/>
</g>
<g filter="url(#filter6_di_3_8)">
<path fill-rule="evenodd" clip-rule="evenodd" d="M280.957 385.79C284.972 389.453 288.651 394.413 291.672 400.322L279.04 414.48C278.11 412.774 277.036 411.29 275.875 410.09L280.957 385.79ZM269.559 440.291C271.39 441.496 273.334 442.009 275.214 441.64L283.823 467.981C283.026 468.295 282.203 468.546 281.356 468.731C275.771 469.953 269.952 468.125 264.599 464.007L269.559 440.291ZM262.947 462.651L267.898 438.981C266.51 437.698 265.228 436.014 264.14 434.027L251.788 447.871C254.929 453.944 258.767 458.999 262.947 462.651ZM274.244 408.635L279.317 384.382C273.801 379.933 267.756 377.919 261.963 379.186C260.341 379.541 258.808 380.137 257.372 380.952L266.059 407.532C266.61 407.223 267.197 406.996 267.818 406.86C269.958 406.392 272.188 407.078 274.244 408.635ZM245.35 429.714C246.632 435.635 248.531 441.139 250.879 446.044L263.233 432.197C262.452 430.451 261.815 428.525 261.37 426.47C261.316 426.219 261.265 425.969 261.217 425.72L244.748 426.643C244.927 427.662 245.127 428.686 245.35 429.714ZM279.945 416.313L292.575 402.157C294.86 406.99 296.711 412.397 297.968 418.204C298.224 419.382 298.45 420.556 298.648 421.723L281.926 422.66C281.884 422.441 281.839 422.222 281.792 422.003C281.35 419.962 280.719 418.049 279.945 416.313ZM244.441 424.76C243.217 416.61 243.381 408.827 244.72 402.058L260.967 416.643C260.63 418.845 260.599 421.288 260.919 423.837L244.441 424.76ZM282.23 424.543C282.621 427.574 282.516 430.457 281.989 432.968L298.234 447.552C299.872 440.524 300.194 432.28 298.943 423.607L282.23 424.543ZM297.704 449.623L281.437 435.02C280.508 437.8 278.983 439.93 276.997 440.998L285.555 467.181C291.196 464.174 295.4 457.852 297.704 449.623ZM245.187 399.93L261.413 414.496C262.049 412.11 263.09 410.121 264.465 408.752L255.725 382.011C250.76 385.596 247.119 391.959 245.187 399.93Z" fill="#4C4C4C"/>
</g>
<path fill-rule="evenodd" clip-rule="evenodd" d="M256.105 353.503L295.353 344.406L295.355 344.415C295.602 344.353 295.851 344.295 296.1 344.24C319.412 339.141 345.28 367.192 353.878 406.894C362.477 446.597 350.549 482.916 327.237 488.015C327.014 488.064 326.79 488.11 326.566 488.153L288.441 497.011L278.089 451.066C274.435 443.321 271.473 434.661 269.459 425.361C267.602 416.783 266.702 408.363 266.668 400.381L256.105 353.503Z" fill="#000000"/>
<ellipse rx="43.7197" ry="74.2589" transform="matrix(-0.976187 0.213537 0.211819 0.978055 272.742 424.331)" fill="#2C2C2C"/>
<g filter="url(#filter7_i_3_8)">
<g filter="url(#filter8_i_3_8)">
<ellipse rx="30.4251" ry="53.1875" transform="matrix(-0.962889 0.267119 0.280029 0.960737 270.035 429.199)" fill="url(#paint3_linear_3_8)"/>
</g>
<g filter="url(#filter9_di_3_8)">
<path fill-rule="evenodd" clip-rule="evenodd" d="M248.048 437.058C253.286 455.045 264.914 467.831 275.718 467.776L270.678 447.943C266.288 446.872 261.886 441.84 259.422 434.911L248.048 437.058ZM246.642 431.341C243.011 413.351 247.2 397.14 256.496 392.131L261.538 411.973C258.145 415.063 256.672 421.756 257.937 429.209L246.642 431.341ZM279.588 425.122C277.151 416.9 271.998 410.922 267.009 410.236L262.012 390.572C273.347 389.938 285.766 403.718 290.845 422.997L279.588 425.122ZM280.767 430.882L292.104 428.742C295.192 446.41 290.719 462.037 281.307 466.506L276.312 446.849C279.843 444.242 281.583 438.034 280.767 430.882Z" fill="#A9A8A8"/>
</g>
</g>
<g filter="url(#filter10_ii_3_8)">
<path fill-rule="evenodd" clip-rule="evenodd" d="M838.88 345.242C839.288 345.599 839.721 345.925 840.184 346.208C841.799 347.193 843.252 347.892 844.551 348.275C860.868 353.091 996.577 432.074 1025.81 463.172C1054.26 493.435 1052.2 511.04 1051.24 519.212C1051.1 520.393 1050.98 521.376 1050.98 522.173C1051 526.145 1050.77 534.133 1050.47 544.295C1050.3 550.28 1050.1 557.02 1049.92 564.138L1049.31 588.321C1049.2 590.126 1049.16 591.969 1049.12 593.852C1048.96 601.845 1048.77 610.535 1043.63 619.931C1037.3 631.514 1007.05 673.806 864.436 714.67C816.077 728.527 760.769 710.364 725.608 694.733C710.908 688.826 699.807 683.199 694.333 680.3C693.491 679.854 692.848 679.172 692.443 678.357C692.333 678.136 692.148 677.932 691.932 677.814V677.814C691.607 677.636 691.42 677.319 691.4 676.949C690.76 664.859 688.329 647.816 684.57 630.734C680.258 612.307 674.415 594.006 667.797 582C652.253 553.799 618.538 518.649 591.103 527.348C559.969 537.222 561.213 581.671 561.537 592.286C561.632 595.407 561.941 597.495 562.245 599.557C562.592 601.902 562.933 604.213 562.951 607.973C562.952 608.156 562.942 608.335 562.922 608.51C562.902 608.679 562.885 608.849 562.884 609.019C562.88 609.645 562.862 610.334 562.83 611.096C562.78 612.262 561.519 612.949 560.496 612.387V612.387C560.118 612.18 559.674 612.147 559.247 612.21C558.323 612.346 557.332 612.198 556.409 611.695L320.596 483.398C319.345 482.718 318.468 481.496 318.315 480.08C317.746 474.818 317.916 468.716 318.106 461.911L318.106 461.909C318.631 443.115 319.305 418.959 304.973 392.332C291.874 367.995 272.306 351.609 254.031 356.839C235.756 362.069 230.33 381.472 229.066 392.323C227.824 402.979 228.152 412.795 228.343 418.488L228.343 418.489L228.342 418.49C228.419 420.781 228.473 422.404 228.394 423.145C228.117 425.728 202.583 402.602 201.122 394C196.676 367.821 196.23 343.4 199.581 317.026C200.13 312.712 202 301.828 203.326 297.561C203.527 296.913 203.641 296.244 203.617 295.565C203.301 286.477 205.223 273.185 207.849 267.6C208.084 267.1 208.314 266.573 208.555 266.02C211.375 259.565 215.778 249.484 248.086 236.008C293.962 216.872 418.624 174.844 423.43 173.91C434.785 171.702 449.221 173.14 460.907 174.305C467.765 174.988 473.675 175.577 477.462 175.28C532.148 170.987 595.184 180.122 677.544 224.321C688.596 229.345 699.506 235.035 710.046 241.482C736.375 257.587 758.47 274.538 776.806 290.085C798.21 307.32 814.661 322.743 826.473 333.816L826.473 333.816C831.413 338.448 835.541 342.318 838.88 345.242Z" fill="url(#paint4_linear_3_8)"/>
</g>
<g filter="url(#filter11_ddi_3_8)">
<path d="M618.077 434.352C588.059 421.024 572.056 379.36 527.252 329.9C526.157 328.691 526.609 326.739 528.138 326.17L718.028 255.441C718.375 255.312 718.738 255.268 719.097 255.358C722.425 256.191 741.733 262.791 794.197 311.342C820.57 335.748 825.814 342.064 839.512 351.811C841.678 353.353 841.212 356.614 832.945 363.083C806.592 383.705 662.465 454.06 618.077 434.352Z" fill="url(#paint5_linear_3_8)"/>
</g>
<g filter="url(#filter12_di_3_8)">
<path d="M408.178 269.138C368.62 255.575 358.361 255.244 330.872 252.993C311.957 251.444 281.811 253.483 278.313 261.928C274.816 270.374 310.547 298.084 325.407 306.807C332.669 311.07 583.552 444.874 575.854 429.617C566.369 410.82 521.893 356.685 506.793 334.657C481.617 297.931 447.735 282.7 408.178 269.138Z" fill="url(#paint6_linear_3_8)"/>
</g>
<g filter="url(#filter13_di_3_8)">
<path d="M318.435 241.735L487.457 177.839C487.457 177.839 483.674 179.065 463.153 178.242C455.993 177.955 280.556 244.926 279.26 246.009L318.435 241.735Z" fill="url(#paint7_linear_3_8)"/>
</g>
<g filter="url(#filter14_f_3_8)">
<path d="M692.609 528.182C629.119 496.685 593.969 458.276 556.134 423.023C670.529 460.126 909.883 541.041 905.979 545.812C901.1 551.777 883.59 558.555 825.916 560.976C769.135 563.36 699.879 531.789 692.609 528.182Z" fill="url(#paint8_linear_3_8)" fill-opacity="0.21"/>
</g>
<g filter="url(#filter15_f_3_8)">
<path d="M944.323 391.915C940.749 388.82 896.084 340.114 862.339 315.575C889.322 371.7 950.992 493.769 957.027 493.32C964.57 492.757 999.161 487.183 1009.9 464.015C1020.47 441.205 948.792 395.783 944.323 391.915Z" fill="url(#paint9_linear_3_8)" fill-opacity="0.13"/>
</g>
<g filter="url(#filter16_di_3_8)">
<path d="M466.28 432.873C466.302 431.992 465.82 431.176 465.039 430.771L443.398 419.557C441.894 418.778 440.098 419.842 440.055 421.536L439.965 425.077C439.943 425.959 440.426 426.776 441.21 427.181L462.852 438.351C464.355 439.127 466.148 438.063 466.191 436.371L466.28 432.873Z" fill="#323232"/>
</g>
<g filter="url(#filter17_di_3_8)">
<path d="M344.736 375.492C344.759 374.611 344.276 373.794 343.495 373.389L321.854 362.176C320.351 361.397 318.554 362.46 318.511 364.155L318.421 367.695C318.399 368.577 318.883 369.395 319.666 369.799L341.308 380.969C342.811 381.745 344.604 380.682 344.647 378.989L344.736 375.492Z" fill="#323232"/>
</g>
<g filter="url(#filter18_f_3_8)">
<path d="M537.97 588.613L332.349 481.394C331.217 480.804 330.383 479.774 330.048 478.543C324.925 459.738 315.626 423.785 315.604 416.248C315.576 406.493 560.682 530.826 551.438 552.66C546.664 563.935 545.585 575.007 545.867 583.137C546.006 587.121 541.504 590.456 537.97 588.613Z" fill="url(#paint10_linear_3_8)" fill-opacity="0.12"/>
</g>
<path d="M743.913 409.43L600.185 299.024C583.299 303.14 544.7 319.259 537.358 321.806C527.846 325.107 526.23 327.04 526.23 327.04C526.157 329.885 527.578 331.166 532.039 335.728C538.435 342.268 541.136 345.272 556.855 366.428C579.492 396.895 596.588 425.143 613.487 432.245C626.931 437.896 647.992 443.074 678.383 433.892C705.548 425.685 722.386 416.059 743.913 409.43Z" fill="#C4C4C4" fill-opacity="0.2"/>
<g opacity="0.17" filter="url(#filter19_f_3_8)">
<path d="M1001.44 500.55C960.742 531.111 870.837 573.992 831.032 579.87" stroke="url(#paint11_linear_3_8)" stroke-width="75.7446" stroke-linecap="round" stroke-linejoin="round"/>
</g>
<g filter="url(#filter20_ddii_3_8)">
<path d="M1031.61 512.841C1039.57 502.643 1037.65 494.276 1036.85 481.193C1036.82 480.837 1036.75 480.457 1036.65 480.114C1033.58 469.727 1047.59 491.495 1048.74 506.343C1049.12 511.258 1048.74 513.733 1048.17 518.246C1047.9 520.311 1043.32 532.841 1043.89 535.585C1044.45 538.33 1042.58 557.1 1042.61 559.944C1042.63 562.789 1030.23 583.635 998.538 603.24C972.212 619.527 934.748 629.704 930.923 630.156C927.097 630.607 923.686 617.723 920.937 616.947C913.743 614.914 892.152 622.23 884.116 624.036C874.739 626.142 852.86 630.993 829.176 627.337C799.882 622.815 795.469 619.36 768.824 603.959C751.938 594.198 740.013 576.16 735.141 565.257C733.822 562.307 736.508 559.781 739.549 560.874C758.139 567.555 796.447 582.386 839.984 587.97C904.676 596.267 956.689 566.738 964.141 562.493C995.466 544.646 1011.85 538.169 1031.61 512.841Z" fill="#272727"/>
</g>
<mask id="mask0_3_8" style="mask-type:alpha" maskUnits="userSpaceOnUse" x="734" y="481" width="319" height="150">
<path d="M1031.61 512.711C1037.92 504.623 1038.51 495.037 1037.22 486.57C1036.51 481.959 1041.07 479.538 1043.35 483.607C1048.99 493.689 1051.28 502.194 1051.88 506.869C1052.26 511.784 1052.06 514.894 1051.49 519.408C1051.23 521.473 1043.34 532.703 1043.9 535.447C1044.47 538.191 1042.61 556.962 1042.64 559.807C1042.66 562.652 1030.27 583.506 998.597 603.131C972.281 619.434 934.824 629.636 930.998 630.09C927.173 630.544 923.754 617.662 921.004 616.887C913.809 614.859 892.223 622.189 884.188 624C874.812 626.112 852.937 630.977 829.25 627.337C799.953 622.834 795.538 619.381 768.883 603.997C751.991 594.247 740.054 576.216 735.175 565.316C733.855 562.368 736.539 559.84 739.58 560.931C758.175 567.6 796.492 582.407 840.033 587.963C904.731 596.218 956.724 566.656 964.173 562.406C995.487 544.539 1011.86 538.052 1031.61 512.711Z" fill="#999999"/>
</mask>
<g mask="url(#mask0_3_8)">
<g filter="url(#filter21_d_3_8)">
<path d="M781.129 570.564L868.372 574.094C868.378 574.111 868.383 574.129 868.389 574.147C868.613 574.853 868.895 575.877 869.118 577.122C869.565 579.625 869.757 582.943 868.818 586.346C867.89 589.713 865.839 593.235 861.669 596.196C857.47 599.177 851.035 601.65 841.26 602.71C835.452 603.34 827.448 603.108 819.263 601.339C811.074 599.568 802.825 596.284 796.421 590.906C792.957 587.998 788.76 582.322 785.354 577.211C783.671 574.686 782.215 572.35 781.179 570.645C781.162 570.618 781.146 570.591 781.129 570.564Z" stroke="white" stroke-opacity="0.9" stroke-width="3.41524"/>
</g>
<g filter="url(#filter22_d_3_8)">
<path d="M1036.89 485.646C1036.9 485.662 1036.91 485.677 1036.92 485.692C1037.68 487.131 1038.64 489.202 1039.37 491.718C1040.83 496.746 1041.38 503.473 1037.89 510.522C1036.89 512.529 1035.52 513.846 1034.14 514.364C1032.86 514.845 1031.33 514.732 1029.64 513.38C1028.47 512.449 1026.83 512.049 1025.34 511.861C1023.78 511.665 1022.07 511.666 1020.52 511.745C1019.86 511.778 1019.22 511.826 1018.61 511.882L1036.89 485.646Z" stroke="white" stroke-opacity="0.9" stroke-width="3.41524"/>
</g>
</g>
<defs>
<filter id="filter0_f_3_8" x="156.532" y="341.326" width="912.769" height="427.964" filterUnits="userSpaceOnUse" color-interpolation-filters="sRGB">
<feFlood flood-opacity="0" result="BackgroundImageFix"/>
<feBlend mode="normal" in="SourceGraphic" in2="BackgroundImageFix" result="shape"/>
<feGaussianBlur stdDeviation="5" result="effect1_foregroundBlur_3_8"/>
</filter>
<filter id="filter1_i_3_8" x="574.091" y="546.5" width="88.7214" height="126.952" filterUnits="userSpaceOnUse" color-interpolation-filters="sRGB">
<feFlood flood-opacity="0" result="BackgroundImageFix"/>
<feBlend mode="normal" in="SourceGraphic" in2="BackgroundImageFix" result="shape"/>
<feColorMatrix in="SourceAlpha" type="matrix" values="0 0 0 0 0 0 0 0 0 0 0 0 0 0 0 0 0 0 127 0" result="hardAlpha"/>
<feMorphology radius="1.14765" operator="erode" in="SourceAlpha" result="effect1_innerShadow_3_8"/>
<feOffset/>
<feGaussianBlur stdDeviation="0.573823"/>
<feComposite in2="hardAlpha" operator="arithmetic" k2="-1" k3="1"/>
<feColorMatrix type="matrix" values="0 0 0 0 0 0 0 0 0 0 0 0 0 0 0 0 0 0 0.25 0"/>
<feBlend mode="normal" in2="shape" result="effect1_innerShadow_3_8"/>
</filter>
<filter id="filter2_di_3_8" x="578.154" y="556.998" width="77.8619" height="108.026" filterUnits="userSpaceOnUse" color-interpolation-filters="sRGB">
<feFlood flood-opacity="0" result="BackgroundImageFix"/>
<feColorMatrix in="SourceAlpha" type="matrix" values="0 0 0 0 0 0 0 0 0 0 0 0 0 0 0 0 0 0 127 0" result="hardAlpha"/>
<feOffset dy="0.459058"/>
<feGaussianBlur stdDeviation="0.344294"/>
<feColorMatrix type="matrix" values="0 0 0 0 1 0 0 0 0 1 0 0 0 0 1 0 0 0 0.41 0"/>
<feBlend mode="normal" in2="BackgroundImageFix" result="effect1_dropShadow_3_8"/>
<feBlend mode="normal" in="SourceGraphic" in2="effect1_dropShadow_3_8" result="shape"/>
<feColorMatrix in="SourceAlpha" type="matrix" values="0 0 0 0 0 0 0 0 0 0 0 0 0 0 0 0 0 0 127 0" result="hardAlpha"/>
<feOffset dx="-3.44294" dy="2.29529"/>
<feGaussianBlur stdDeviation="1.72147"/>
<feComposite in2="hardAlpha" operator="arithmetic" k2="-1" k3="1"/>
<feColorMatrix type="matrix" values="0 0 0 0 0 0 0 0 0 0 0 0 0 0 0 0 0 0 0.25 0"/>
<feBlend mode="normal" in2="shape" result="effect2_innerShadow_3_8"/>
</filter>
<filter id="filter3_i_3_8" x="577.55" y="548.473" width="82.7461" height="123.021" filterUnits="userSpaceOnUse" color-interpolation-filters="sRGB">
<feFlood flood-opacity="0" result="BackgroundImageFix"/>
<feBlend mode="normal" in="SourceGraphic" in2="BackgroundImageFix" result="shape"/>
<feColorMatrix in="SourceAlpha" type="matrix" values="0 0 0 0 0 0 0 0 0 0 0 0 0 0 0 0 0 0 127 0" result="hardAlpha"/>
<feMorphology radius="2.84604" operator="erode" in="SourceAlpha" result="effect1_innerShadow_3_8"/>
<feOffset/>
<feGaussianBlur stdDeviation="1.42302"/>
<feComposite in2="hardAlpha" operator="arithmetic" k2="-1" k3="1"/>
<feColorMatrix type="matrix" values="0 0 0 0 0 0 0 0 0 0 0 0 0 0 0 0 0 0 0.25 0"/>
<feBlend mode="normal" in2="shape" result="effect1_innerShadow_3_8"/>
</filter>
<filter id="filter4_di_3_8" x="584.64" y="564.166" width="66.1075" height="93.7387" filterUnits="userSpaceOnUse" color-interpolation-filters="sRGB">
<feFlood flood-opacity="0" result="BackgroundImageFix"/>
<feColorMatrix in="SourceAlpha" type="matrix" values="0 0 0 0 0 0 0 0 0 0 0 0 0 0 0 0 0 0 127 0" result="hardAlpha"/>
<feOffset dy="0.970617"/>
<feGaussianBlur stdDeviation="0.606636"/>
<feColorMatrix type="matrix" values="0 0 0 0 1 0 0 0 0 1 0 0 0 0 1 0 0 0 0.59 0"/>
<feBlend mode="normal" in2="BackgroundImageFix" result="effect1_dropShadow_3_8"/>
<feBlend mode="normal" in="SourceGraphic" in2="effect1_dropShadow_3_8" result="shape"/>
<feColorMatrix in="SourceAlpha" type="matrix" values="0 0 0 0 0 0 0 0 0 0 0 0 0 0 0 0 0 0 127 0" result="hardAlpha"/>
<feOffset dx="-3.63981" dy="2.42654"/>
<feGaussianBlur stdDeviation="1.81991"/>
<feComposite in2="hardAlpha" operator="arithmetic" k2="-1" k3="1"/>
<feColorMatrix type="matrix" values="0 0 0 0 0 0 0 0 0 0 0 0 0 0 0 0 0 0 0.25 0"/>
<feBlend mode="normal" in2="shape" result="effect2_innerShadow_3_8"/>
</filter>
<filter id="filter5_i_3_8" x="237.919" y="369.637" width="67.4995" height="108.651" filterUnits="userSpaceOnUse" color-interpolation-filters="sRGB">
<feFlood flood-opacity="0" result="BackgroundImageFix"/>
<feBlend mode="normal" in="SourceGraphic" in2="BackgroundImageFix" result="shape"/>
<feColorMatrix in="SourceAlpha" type="matrix" values="0 0 0 0 0 0 0 0 0 0 0 0 0 0 0 0 0 0 127 0" result="hardAlpha"/>
<feMorphology radius="0.947741" operator="erode" in="SourceAlpha" result="effect1_innerShadow_3_8"/>
<feOffset/>
<feGaussianBlur stdDeviation="0.47387"/>
<feComposite in2="hardAlpha" operator="arithmetic" k2="-1" k3="1"/>
<feColorMatrix type="matrix" values="0 0 0 0 0 0 0 0 0 0 0 0 0 0 0 0 0 0 0.25 0"/>
<feBlend mode="normal" in2="shape" result="effect1_innerShadow_3_8"/>
</filter>
<filter id="filter6_di_3_8" x="240.769" y="378.623" width="59.5059" height="92.3771" filterUnits="userSpaceOnUse" color-interpolation-filters="sRGB">
<feFlood flood-opacity="0" result="BackgroundImageFix"/>
<feColorMatrix in="SourceAlpha" type="matrix" values="0 0 0 0 0 0 0 0 0 0 0 0 0 0 0 0 0 0 127 0" result="hardAlpha"/>
<feOffset dy="0.379096"/>
<feGaussianBlur stdDeviation="0.284322"/>
<feColorMatrix type="matrix" values="0 0 0 0 1 0 0 0 0 1 0 0 0 0 1 0 0 0 0.41 0"/>
<feBlend mode="normal" in2="BackgroundImageFix" result="effect1_dropShadow_3_8"/>
<feBlend mode="normal" in="SourceGraphic" in2="effect1_dropShadow_3_8" result="shape"/>
<feColorMatrix in="SourceAlpha" type="matrix" values="0 0 0 0 0 0 0 0 0 0 0 0 0 0 0 0 0 0 127 0" result="hardAlpha"/>
<feOffset dx="-2.84322" dy="1.89548"/>
<feGaussianBlur stdDeviation="1.42161"/>
<feComposite in2="hardAlpha" operator="arithmetic" k2="-1" k3="1"/>
<feColorMatrix type="matrix" values="0 0 0 0 0 0 0 0 0 0 0 0 0 0 0 0 0 0 0.25 0"/>
<feBlend mode="normal" in2="shape" result="effect2_innerShadow_3_8"/>
</filter>
<filter id="filter7_i_3_8" x="237.163" y="377.45" width="65.7434" height="103.498" filterUnits="userSpaceOnUse" color-interpolation-filters="sRGB">
<feFlood flood-opacity="0" result="BackgroundImageFix"/>
<feBlend mode="normal" in="SourceGraphic" in2="BackgroundImageFix" result="shape"/>
<feColorMatrix in="SourceAlpha" type="matrix" values="0 0 0 0 0 0 0 0 0 0 0 0 0 0 0 0 0 0 127 0" result="hardAlpha"/>
<feMorphology radius="2.84604" operator="erode" in="SourceAlpha" result="effect1_innerShadow_3_8"/>
<feOffset/>
<feGaussianBlur stdDeviation="1.42302"/>
<feComposite in2="hardAlpha" operator="arithmetic" k2="-1" k3="1"/>
<feColorMatrix type="matrix" values="0 0 0 0 0 0 0 0 0 0 0 0 0 0 0 0 0 0 0.25 0"/>
<feBlend mode="normal" in2="shape" result="effect1_innerShadow_3_8"/>
</filter>
<filter id="filter8_i_3_8" x="237.163" y="377.45" width="65.7434" height="103.498" filterUnits="userSpaceOnUse" color-interpolation-filters="sRGB">
<feFlood flood-opacity="0" result="BackgroundImageFix"/>
<feBlend mode="normal" in="SourceGraphic" in2="BackgroundImageFix" result="shape"/>
<feColorMatrix in="SourceAlpha" type="matrix" values="0 0 0 0 0 0 0 0 0 0 0 0 0 0 0 0 0 0 127 0" result="hardAlpha"/>
<feMorphology radius="0.852955" operator="erode" in="SourceAlpha" result="effect1_innerShadow_3_8"/>
<feOffset/>
<feGaussianBlur stdDeviation="0.426477"/>
<feComposite in2="hardAlpha" operator="arithmetic" k2="-1" k3="1"/>
<feColorMatrix type="matrix" values="0 0 0 0 0 0 0 0 0 0 0 0 0 0 0 0 0 0 0.25 0"/>
<feBlend mode="normal" in2="shape" result="effect1_innerShadow_3_8"/>
</filter>
<filter id="filter9_di_3_8" x="241.702" y="390.308" width="52.585" height="79.895" filterUnits="userSpaceOnUse" color-interpolation-filters="sRGB">
<feFlood flood-opacity="0" result="BackgroundImageFix"/>
<feColorMatrix in="SourceAlpha" type="matrix" values="0 0 0 0 0 0 0 0 0 0 0 0 0 0 0 0 0 0 127 0" result="hardAlpha"/>
<feOffset dy="0.970618"/>
<feGaussianBlur stdDeviation="0.606636"/>
<feColorMatrix type="matrix" values="0 0 0 0 1 0 0 0 0 1 0 0 0 0 1 0 0 0 0.59 0"/>
<feBlend mode="normal" in2="BackgroundImageFix" result="effect1_dropShadow_3_8"/>
<feBlend mode="normal" in="SourceGraphic" in2="effect1_dropShadow_3_8" result="shape"/>
<feColorMatrix in="SourceAlpha" type="matrix" values="0 0 0 0 0 0 0 0 0 0 0 0 0 0 0 0 0 0 127 0" result="hardAlpha"/>
<feOffset dx="-3.63982" dy="2.42654"/>
<feGaussianBlur stdDeviation="1.81991"/>
<feComposite in2="hardAlpha" operator="arithmetic" k2="-1" k3="1"/>
<feColorMatrix type="matrix" values="0 0 0 0 0 0 0 0 0 0 0 0 0 0 0 0 0 0 0.25 0"/>
<feBlend mode="normal" in2="shape" result="effect2_innerShadow_3_8"/>
</filter>
<filter id="filter10_ii_3_8" x="197.38" y="149.989" width="871.39" height="569.61" filterUnits="userSpaceOnUse" color-interpolation-filters="sRGB">
<feFlood flood-opacity="0" result="BackgroundImageFix"/>
<feBlend mode="normal" in="SourceGraphic" in2="BackgroundImageFix" result="shape"/>
<feColorMatrix in="SourceAlpha" type="matrix" values="0 0 0 0 0 0 0 0 0 0 0 0 0 0 0 0 0 0 127 0" result="hardAlpha"/>
<feOffset dx="17.0762" dy="-22.7683"/>
<feGaussianBlur stdDeviation="68.3049"/>
<feComposite in2="hardAlpha" operator="arithmetic" k2="-1" k3="1"/>
<feColorMatrix type="matrix" values="0 0 0 0 0 0 0 0 0 0 0 0 0 0 0 0 0 0 0.07 0"/>
<feBlend mode="normal" in2="shape" result="effect1_innerShadow_3_8"/>
<feColorMatrix in="SourceAlpha" type="matrix" values="0 0 0 0 0 0 0 0 0 0 0 0 0 0 0 0 0 0 127 0" result="hardAlpha"/>
<feOffset dy="-2.84604"/>
<feGaussianBlur stdDeviation="5.69207"/>
<feComposite in2="hardAlpha" operator="arithmetic" k2="-1" k3="1"/>
<feColorMatrix type="matrix" values="0 0 0 0 0 0 0 0 0 0 0 0 0 0 0 0 0 0 0.09 0"/>
<feBlend mode="normal" in2="effect1_innerShadow_3_8" result="effect2_innerShadow_3_8"/>
</filter>
<filter id="filter11_ddi_3_8" x="522.058" y="251.868" width="320.852" height="189.373" filterUnits="userSpaceOnUse" color-interpolation-filters="sRGB">
<feFlood flood-opacity="0" result="BackgroundImageFix"/>
<feColorMatrix in="SourceAlpha" type="matrix" values="0 0 0 0 0 0 0 0 0 0 0 0 0 0 0 0 0 0 127 0" result="hardAlpha"/>
<feOffset dx="-2.29529" dy="1.14765"/>
<feGaussianBlur stdDeviation="1.14765"/>
<feColorMatrix type="matrix" values="0 0 0 0 1 0 0 0 0 1 0 0 0 0 1 0 0 0 0.28 0"/>
<feBlend mode="normal" in2="BackgroundImageFix" result="effect1_dropShadow_3_8"/>
<feColorMatrix in="SourceAlpha" type="matrix" values="0 0 0 0 0 0 0 0 0 0 0 0 0 0 0 0 0 0 127 0" result="hardAlpha"/>
<feOffset dy="-1.14765"/>
<feGaussianBlur stdDeviation="1.14765"/>
<feColorMatrix type="matrix" values="0 0 0 0 1 0 0 0 0 1 0 0 0 0 1 0 0 0 0.56 0"/>
<feBlend mode="normal" in2="effect1_dropShadow_3_8" result="effect2_dropShadow_3_8"/>
<feBlend mode="normal" in="SourceGraphic" in2="effect2_dropShadow_3_8" result="shape"/>
<feColorMatrix in="SourceAlpha" type="matrix" values="0 0 0 0 0 0 0 0 0 0 0 0 0 0 0 0 0 0 127 0" result="hardAlpha"/>
<feOffset dx="-1.14765" dy="3.44294"/>
<feGaussianBlur stdDeviation="1.72147"/>
<feComposite in2="hardAlpha" operator="arithmetic" k2="-1" k3="1"/>
<feColorMatrix type="matrix" values="0 0 0 0 0 0 0 0 0 0 0 0 0 0 0 0 0 0 0.75 0"/>
<feBlend mode="normal" in2="shape" result="effect3_innerShadow_3_8"/>
</filter>
<filter id="filter12_di_3_8" x="273.483" y="252.517" width="303.731" height="182.902" filterUnits="userSpaceOnUse" color-interpolation-filters="sRGB">
<feFlood flood-opacity="0" result="BackgroundImageFix"/>
<feColorMatrix in="SourceAlpha" type="matrix" values="0 0 0 0 0 0 0 0 0 0 0 0 0 0 0 0 0 0 127 0" result="hardAlpha"/>
<feOffset dy="1.18682"/>
<feGaussianBlur stdDeviation="0.593408"/>
<feColorMatrix type="matrix" values="0 0 0 0 0.925374 0 0 0 0 0.925374 0 0 0 0 0.925374 0 0 0 0.37 0"/>
<feBlend mode="normal" in2="BackgroundImageFix" result="effect1_dropShadow_3_8"/>
<feBlend mode="normal" in="SourceGraphic" in2="effect1_dropShadow_3_8" result="shape"/>
<feColorMatrix in="SourceAlpha" type="matrix" values="0 0 0 0 0 0 0 0 0 0 0 0 0 0 0 0 0 0 127 0" result="hardAlpha"/>
<feOffset dx="-4.59058" dy="5.73823"/>
<feGaussianBlur stdDeviation="2.29529"/>
<feComposite in2="hardAlpha" operator="arithmetic" k2="-1" k3="1"/>
<feColorMatrix type="matrix" values="0 0 0 0 0 0 0 0 0 0 0 0 0 0 0 0 0 0 0.8 0"/>
<feBlend mode="normal" in2="shape" result="effect2_innerShadow_3_8"/>
</filter>
<filter id="filter13_di_3_8" x="274.669" y="177.839" width="213.975" height="72.7614" filterUnits="userSpaceOnUse" color-interpolation-filters="sRGB">
<feFlood flood-opacity="0" result="BackgroundImageFix"/>
<feColorMatrix in="SourceAlpha" type="matrix" values="0 0 0 0 0 0 0 0 0 0 0 0 0 0 0 0 0 0 127 0" result="hardAlpha"/>
<feOffset dy="1.18682"/>
<feGaussianBlur stdDeviation="0.593408"/>
<feColorMatrix type="matrix" values="0 0 0 0 0.925374 0 0 0 0 0.925374 0 0 0 0 0.925374 0 0 0 0.37 0"/>
<feBlend mode="normal" in2="BackgroundImageFix" result="effect1_dropShadow_3_8"/>
<feBlend mode="normal" in="SourceGraphic" in2="effect1_dropShadow_3_8" result="shape"/>
<feColorMatrix in="SourceAlpha" type="matrix" values="0 0 0 0 0 0 0 0 0 0 0 0 0 0 0 0 0 0 127 0" result="hardAlpha"/>
<feOffset dx="-4.59058" dy="5.73823"/>
<feGaussianBlur stdDeviation="2.29529"/>
<feComposite in2="hardAlpha" operator="arithmetic" k2="-1" k3="1"/>
<feColorMatrix type="matrix" values="0 0 0 0 0 0 0 0 0 0 0 0 0 0 0 0 0 0 0.8 0"/>
<feBlend mode="normal" in2="shape" result="effect2_innerShadow_3_8"/>
</filter>
<filter id="filter14_f_3_8" x="524" y="390.889" width="414.161" height="202.35" filterUnits="userSpaceOnUse" color-interpolation-filters="sRGB">
<feFlood flood-opacity="0" result="BackgroundImageFix"/>
<feBlend mode="normal" in="SourceGraphic" in2="BackgroundImageFix" result="shape"/>
<feGaussianBlur stdDeviation="16.067" result="effect1_foregroundBlur_3_8"/>
</filter>
<filter id="filter15_f_3_8" x="841.681" y="294.917" width="189.936" height="219.061" filterUnits="userSpaceOnUse" color-interpolation-filters="sRGB">
<feFlood flood-opacity="0" result="BackgroundImageFix"/>
<feBlend mode="normal" in="SourceGraphic" in2="BackgroundImageFix" result="shape"/>
<feGaussianBlur stdDeviation="10.3288" result="effect1_foregroundBlur_3_8"/>
</filter>
<filter id="filter16_di_3_8" x="439.395" y="418.159" width="27.4548" height="23.2962" filterUnits="userSpaceOnUse" color-interpolation-filters="sRGB">
<feFlood flood-opacity="0" result="BackgroundImageFix"/>
<feColorMatrix in="SourceAlpha" type="matrix" values="0 0 0 0 0 0 0 0 0 0 0 0 0 0 0 0 0 0 127 0" result="hardAlpha"/>
<feOffset dy="-0.569207"/>
<feGaussianBlur stdDeviation="0.284604"/>
<feColorMatrix type="matrix" values="0 0 0 0 0.78755 0 0 0 0 0.78755 0 0 0 0 0.78755 0 0 0 0.19 0"/>
<feBlend mode="normal" in2="BackgroundImageFix" result="effect1_dropShadow_3_8"/>
<feBlend mode="normal" in="SourceGraphic" in2="effect1_dropShadow_3_8" result="shape"/>
<feColorMatrix in="SourceAlpha" type="matrix" values="0 0 0 0 0 0 0 0 0 0 0 0 0 0 0 0 0 0 127 0" result="hardAlpha"/>
<feOffset dy="2.84604"/>
<feGaussianBlur stdDeviation="1.42302"/>
<feComposite in2="hardAlpha" operator="arithmetic" k2="-1" k3="1"/>
<feColorMatrix type="matrix" values="0 0 0 0 0 0 0 0 0 0 0 0 0 0 0 0 0 0 0.74 0"/>
<feBlend mode="normal" in2="shape" result="effect2_innerShadow_3_8"/>
</filter>
<filter id="filter17_di_3_8" x="317.851" y="360.777" width="27.4548" height="23.2962" filterUnits="userSpaceOnUse" color-interpolation-filters="sRGB">
<feFlood flood-opacity="0" result="BackgroundImageFix"/>
<feColorMatrix in="SourceAlpha" type="matrix" values="0 0 0 0 0 0 0 0 0 0 0 0 0 0 0 0 0 0 127 0" result="hardAlpha"/>
<feOffset dy="-0.569207"/>
<feGaussianBlur stdDeviation="0.284604"/>
<feColorMatrix type="matrix" values="0 0 0 0 0.78755 0 0 0 0 0.78755 0 0 0 0 0.78755 0 0 0 0.19 0"/>
<feBlend mode="normal" in2="BackgroundImageFix" result="effect1_dropShadow_3_8"/>
<feBlend mode="normal" in="SourceGraphic" in2="effect1_dropShadow_3_8" result="shape"/>
<feColorMatrix in="SourceAlpha" type="matrix" values="0 0 0 0 0 0 0 0 0 0 0 0 0 0 0 0 0 0 127 0" result="hardAlpha"/>
<feOffset dy="2.84604"/>
<feGaussianBlur stdDeviation="1.42302"/>
<feComposite in2="hardAlpha" operator="arithmetic" k2="-1" k3="1"/>
<feColorMatrix type="matrix" values="0 0 0 0 0 0 0 0 0 0 0 0 0 0 0 0 0 0 0.74 0"/>
<feBlend mode="normal" in2="shape" result="effect2_innerShadow_3_8"/>
</filter>
<filter id="filter18_f_3_8" x="308.718" y="408.817" width="249.86" height="187.203" filterUnits="userSpaceOnUse" color-interpolation-filters="sRGB">
<feFlood flood-opacity="0" result="BackgroundImageFix"/>
<feBlend mode="normal" in="SourceGraphic" in2="BackgroundImageFix" result="shape"/>
<feGaussianBlur stdDeviation="3.44294" result="effect1_foregroundBlur_3_8"/>
</filter>
<filter id="filter19_f_3_8" x="781.678" y="451.199" width="269.114" height="178.024" filterUnits="userSpaceOnUse" color-interpolation-filters="sRGB">
<feFlood flood-opacity="0" result="BackgroundImageFix"/>
<feBlend mode="normal" in="SourceGraphic" in2="BackgroundImageFix" result="shape"/>
<feGaussianBlur stdDeviation="5.73823" result="effect1_foregroundBlur_3_8"/>
</filter>
<filter id="filter20_ddii_3_8" x="733.368" y="475.26" width="316.953" height="164.754" filterUnits="userSpaceOnUse" color-interpolation-filters="sRGB">
<feFlood flood-opacity="0" result="BackgroundImageFix"/>
<feColorMatrix in="SourceAlpha" type="matrix" values="0 0 0 0 0 0 0 0 0 0 0 0 0 0 0 0 0 0 127 0" result="hardAlpha"/>
<feOffset dy="1.07131"/>
<feGaussianBlur stdDeviation="0.714204"/>
<feColorMatrix type="matrix" values="0 0 0 0 0 0 0 0 0 0 0 0 0 0 0 0 0 0 0.57 0"/>
<feBlend mode="normal" in2="BackgroundImageFix" result="effect1_dropShadow_3_8"/>
<feColorMatrix in="SourceAlpha" type="matrix" values="0 0 0 0 0 0 0 0 0 0 0 0 0 0 0 0 0 0 127 0" result="hardAlpha"/>
<feOffset dy="-0.714204"/>
<feGaussianBlur stdDeviation="0.714204"/>
<feColorMatrix type="matrix" values="0 0 0 0 0 0 0 0 0 0 0 0 0 0 0 0 0 0 1 0"/>
<feBlend mode="normal" in2="effect1_dropShadow_3_8" result="effect2_dropShadow_3_8"/>
<feBlend mode="normal" in="SourceGraphic" in2="effect2_dropShadow_3_8" result="shape"/>
<feColorMatrix in="SourceAlpha" type="matrix" values="0 0 0 0 0 0 0 0 0 0 0 0 0 0 0 0 0 0 127 0" result="hardAlpha"/>
<feOffset dy="9.84614"/>
<feGaussianBlur stdDeviation="10.0343"/>
<feComposite in2="hardAlpha" operator="arithmetic" k2="-1" k3="1"/>
<feColorMatrix type="matrix" values="0 0 0 0 0 0 0 0 0 0 0 0 0 0 0 0 0 0 1 0"/>
<feBlend mode="normal" in2="shape" result="effect3_innerShadow_3_8"/>
<feColorMatrix in="SourceAlpha" type="matrix" values="0 0 0 0 0 0 0 0 0 0 0 0 0 0 0 0 0 0 127 0" result="hardAlpha"/>
<feOffset dy="-1.07294"/>
<feGaussianBlur stdDeviation="1.07294"/>
<feComposite in2="hardAlpha" operator="arithmetic" k2="-1" k3="1"/>
<feColorMatrix type="matrix" values="0 0 0 0 0 0 0 0 0 0 0 0 0 0 0 0 0 0 1 0"/>
<feBlend mode="normal" in2="effect3_innerShadow_3_8" result="effect4_innerShadow_3_8"/>
</filter>
<filter id="filter21_d_3_8" x="777.779" y="568.73" width="95.9699" height="38.8336" filterUnits="userSpaceOnUse" color-interpolation-filters="sRGB">
<feFlood flood-opacity="0" result="BackgroundImageFix"/>
<feColorMatrix in="SourceAlpha" type="matrix" values="0 0 0 0 0 0 0 0 0 0 0 0 0 0 0 0 0 0 127 0" result="hardAlpha"/>
<feOffset dx="1.13841" dy="1.41412"/>
<feGaussianBlur stdDeviation="0.707062"/>
<feColorMatrix type="matrix" values="0 0 0 0 1 0 0 0 0 1 0 0 0 0 1 0 0 0 0.24 0"/>
<feBlend mode="normal" in2="BackgroundImageFix" result="effect1_dropShadow_3_8"/>
<feBlend mode="normal" in="SourceGraphic" in2="effect1_dropShadow_3_8" result="shape"/>
</filter>
<filter id="filter22_d_3_8" x="1014.73" y="482.514" width="30.0276" height="36.6458" filterUnits="userSpaceOnUse" color-interpolation-filters="sRGB">
<feFlood flood-opacity="0" result="BackgroundImageFix"/>
<feColorMatrix in="SourceAlpha" type="matrix" values="0 0 0 0 0 0 0 0 0 0 0 0 0 0 0 0 0 0 127 0" result="hardAlpha"/>
<feOffset dx="1.13841" dy="1.41412"/>
<feGaussianBlur stdDeviation="0.707062"/>
<feColorMatrix type="matrix" values="0 0 0 0 1 0 0 0 0 1 0 0 0 0 1 0 0 0 0.24 0"/>
<feBlend mode="normal" in2="BackgroundImageFix" result="effect1_dropShadow_3_8"/>
<feBlend mode="normal" in="SourceGraphic" in2="effect1_dropShadow_3_8" result="shape"/>
</filter>
<linearGradient id="paint0_linear_3_8" x1="92.6244" y1="101.765" x2="97.237" y2="33.1598" gradientUnits="userSpaceOnUse">
<stop stop-color="#3F3F3F"/>
<stop offset="1" stop-color="#5C5C5C"/>
</linearGradient>
<linearGradient id="paint1_linear_3_8" x1="86.8078" y1="98.1401" x2="91.3839" y2="31.9963" gradientUnits="userSpaceOnUse">
<stop stop-color="#AAAAAA"/>
<stop offset="1" stop-color="#C2C2C2"/>
</linearGradient>
<linearGradient id="paint2_linear_3_8" x1="76.4979" y1="84.0312" x2="80.3061" y2="27.3813" gradientUnits="userSpaceOnUse">
<stop stop-color="#3F3F3F"/>
<stop offset="1" stop-color="#5C5C5C"/>
</linearGradient>
<linearGradient id="paint3_linear_3_8" x1="71.7661" y1="81.1363" x2="75.5494" y2="26.4526" gradientUnits="userSpaceOnUse">
<stop stop-color="#AAAAAA"/>
<stop offset="1" stop-color="#C2C2C2"/>
</linearGradient>
<linearGradient id="paint4_linear_3_8" x1="672.492" y1="690.535" x2="1077.88" y2="221.356" gradientUnits="userSpaceOnUse">
<stop stop-color="#D8D8D8"/>
<stop offset="1" stop-color="white"/>
</linearGradient>
<linearGradient id="paint5_linear_3_8" x1="724.542" y1="92.7946" x2="495.124" y2="299.062" gradientUnits="userSpaceOnUse">
<stop stop-color="#E8EAE9"/>
<stop offset="0.498386" stop-color="#707072"/>
<stop offset="1" stop-color="#2F3032"/>
</linearGradient>
<linearGradient id="paint6_linear_3_8" x1="338.71" y1="793.536" x2="562.682" y2="407.816" gradientUnits="userSpaceOnUse">
<stop stop-color="#E8EAE9"/>
<stop offset="0.498386" stop-color="#707072"/>
<stop offset="1" stop-color="#2F3032"/>
</linearGradient>
<linearGradient id="paint7_linear_3_8" x1="257.678" y1="386.961" x2="381.459" y2="215.34" gradientUnits="userSpaceOnUse">
<stop stop-color="#E8EAE9"/>
<stop offset="0.498386" stop-color="#707072"/>
<stop offset="1" stop-color="#2F3032"/>
</linearGradient>
<linearGradient id="paint8_linear_3_8" x1="717.338" y1="566.175" x2="747.209" y2="485.602" gradientUnits="userSpaceOnUse">
<stop stop-color="#ECEAEA"/>
<stop offset="1" stop-color="white" stop-opacity="0"/>
</linearGradient>
<linearGradient id="paint9_linear_3_8" x1="1036.96" y1="429.386" x2="931.117" y2="463.332" gradientUnits="userSpaceOnUse">
<stop stop-color="#ECEAEA"/>
<stop offset="1" stop-color="white" stop-opacity="0"/>
</linearGradient>
<linearGradient id="paint10_linear_3_8" x1="467.51" y1="573.774" x2="500.78" y2="507.426" gradientUnits="userSpaceOnUse">
<stop stop-color="#040404"/>
<stop offset="1" stop-color="#3C3C3C" stop-opacity="0"/>
</linearGradient>
<linearGradient id="paint11_linear_3_8" x1="917.781" y1="581.183" x2="899.958" y2="544.251" gradientUnits="userSpaceOnUse">
<stop stop-color="#4B4B4B"/>
<stop offset="0.899322" stop-opacity="0"/>
</linearGradient>
</defs>
</svg>